<?xml version="1.0" standalone="no"?><!DOCTYPE svg PUBLIC "-//W3C//DTD SVG 1.1//EN" "http://www.w3.org/Graphics/SVG/1.1/DTD/svg11.dtd"><svg t="1522824711222" class="icon" style="" viewBox="0 0 1024 1024" version="1.1" xmlns="http://www.w3.org/2000/svg" p-id="1421" xmlns:xlink="http://www.w3.org/1999/xlink" width="128" height="128"><defs><style type="text/css">html, * { user-select: text !important; }
</style></defs><path d="M864 416c0-194.08-157.92-352-352-352S160 221.92 160 416c0 183.392 141.024 334.304 320.32 350.4-0.032 0.576-0.32 1.024-0.32 1.6v64H352c-17.664 0-32 14.304-32 32s14.336 32 32 32h128v32c0 17.696 14.336 32 32 32s32-14.304 32-32v-32h128c17.696 0 32-14.304 32-32s-14.304-32-32-32H544v-64c0-0.576-0.288-1.024-0.32-1.6C722.976 750.304 864 599.392 864 416zM512 704c-158.784 0-288-129.184-288-288 0-158.784 129.216-288 288-288 158.816 0 288 129.216 288 288 0 158.816-129.184 288-288 288z" fill="#F2F2F2" p-id="1422"></path></svg>